<?xml version="1.0" encoding="UTF-8"?>
<svg xmlns="http://www.w3.org/2000/svg" width="383px" height="124px" viewBox="0 0 179 58" fill="none">
  <g clip-path="url(#clip0_1564_5987)">
    <path d="M163.474 56.1895C163.474 57.1934 162.684 58.0002 161.691 58.0002C160.697 58.0002 159.898 57.1841 159.898 56.1895C159.898 55.1861 160.696 54.3882 161.691 54.3882C162.684 54.3882 163.474 55.1861 163.474 56.1895ZM163.138 56.1895C163.138 55.3822 162.49 54.7359 161.691 54.7359C160.874 54.7359 160.234 55.3817 160.234 56.1895C160.234 57.0061 160.882 57.6527 161.691 57.6527C162.499 57.6527 163.138 57.0058 163.138 56.1895ZM162.071 56.3896L162.488 57.1046H162.126L161.738 56.4292H161.418V57.1046H161.074V55.2365H161.832C162.183 55.2365 162.442 55.4971 162.442 55.8502C162.442 56.1171 162.294 56.3109 162.071 56.3896ZM161.418 56.1159H161.806C161.989 56.1159 162.107 56.0076 162.107 55.8415C162.107 55.6757 161.989 55.5579 161.806 55.5579H161.418V56.1159Z" fill="white"></path>
    <path d="M172.895 41.5835L178.512 33.6549L175.203 32.6748C172.208 31.7877 169.1 30.9476 165.906 30.1564V22.0309C165.906 19.2166 165.27 17.121 162.101 15.3701L159.831 14.1163C161.383 14.0198 162.903 13.9224 163.664 13.8724L165.906 13.7252V11.457V5.98909C165.906 2.61564 163.796 0.436285 160.63 0.436285C160.461 0.436285 160.285 0.442794 160.11 0.455527C139.406 2.13857 109.925 2.89804 88.0561 2.90964C67.8118 2.91983 36.2966 2.17734 7.89771 0.000244141L8.42182 3.12327L12.9648 30.189C9.81654 30.9708 6.75174 31.7999 3.79731 32.6748L0.48769 33.6549L6.10522 41.5835L0 54.9146L5.17466 53.3838C10.4233 51.8309 16.0156 50.42 21.8357 49.1795V56.6862L24.7621 56.0985C44.4512 52.1441 66.8373 50.0536 89.5001 50.0536C112.163 50.0536 134.549 52.1441 154.238 56.0985L157.165 56.6862V49.1795C162.985 50.42 168.577 51.8309 173.826 53.3838L179 54.9146L172.895 41.5835Z" fill="white"></path>
    <path d="M32.6481 4.06462C31.7218 9.36475 30.7954 14.6677 29.8688 19.9732C29.8458 19.9735 29.8234 19.9735 29.8004 19.9738C29.0721 14.5851 28.3438 9.19441 27.6155 3.80119C26.4866 3.73724 22.9725 3.54369 21.6752 3.45909C21.7862 4.45766 21.8971 5.45594 22.008 6.45422C21.241 10.9819 20.4741 15.5115 19.7071 20.0437C19.6844 20.0439 19.6614 20.0439 19.6385 20.0442C18.8894 14.4266 18.1404 8.80618 17.3914 3.18292C16.3392 3.11275 12.6007 2.84507 10.9155 2.71802C12.7044 13.3797 14.4932 24.0274 16.2821 34.6631C16.4546 35.3702 17.0743 35.8204 17.7821 35.6696C19.1278 35.3826 21.2226 34.9409 22.3058 34.7315C23.1422 29.308 23.9789 23.8874 24.8154 18.4696C24.8383 18.4696 24.8613 18.4693 24.8843 18.469C25.6087 23.1698 26.3331 27.8689 27.0575 32.566C27.2286 33.2706 27.7642 33.7069 28.4732 33.585C29.485 33.411 31.6223 33.0508 32.4573 32.9181C34.4952 23.3803 36.5331 13.8533 38.571 4.33542C37.5779 4.29297 34.0347 4.1314 32.6481 4.06462Z" fill="#FF1E2D"></path>
    <path d="M62.7025 23.9919C62.7025 17.6943 62.7028 11.397 62.7028 5.09948C60.6705 5.05421 58.6382 5.00865 56.606 4.96338C56.606 13.2719 56.606 21.5805 56.606 29.889C60.4475 29.5574 65.3883 29.2365 68.1388 29.075C68.8469 29.0334 69.3203 28.7346 69.4893 28.0362C69.8402 26.5428 70.191 25.0493 70.5419 23.5558C68.4444 23.6359 64.486 23.8787 62.7025 23.9919Z" fill="#FF1E2D"></path>
    <path d="M84.9213 12.7815C86.8404 10.2951 88.7589 7.80929 90.6777 5.3232C88.7928 5.32773 86.0684 5.32943 84.1257 5.32603C82.2851 7.74987 80.4444 10.1737 78.6037 12.5981C78.581 12.5981 78.5586 12.5981 78.5362 12.5984C78.5362 10.1658 78.5362 7.73317 78.5362 5.30028C77.3463 5.29236 73.4756 5.25473 72.4741 5.24341C72.4741 13.1236 72.4741 21.004 72.4741 28.8841C73.9375 28.8205 77.0202 28.705 78.5362 28.6578C78.5362 25.7249 78.5362 22.792 78.5362 19.8591C79.1754 19.0612 79.8144 18.2632 80.4536 17.4656C81.8052 20.8387 83.1562 24.2116 84.5078 27.5848C84.761 28.2186 85.2686 28.5186 85.9398 28.5101C87.0429 28.4956 90.2155 28.4863 91.5156 28.4917C89.3172 23.2541 87.1191 18.0179 84.9213 12.7815Z" fill="#FF1E2D"></path>
    <path d="M114.738 5.00603C111.258 5.08243 107.461 5.15402 104.279 5.20467C102.416 5.23438 101.322 6.25473 101.322 8.69187C101.322 14.3963 101.322 20.1008 101.322 25.8053C101.322 27.6476 102.328 28.6728 104.279 28.7532C107.424 28.8828 111.637 29.0992 114.738 29.2922C116.589 29.4076 117.681 28.7053 117.681 26.4052C117.681 20.4242 117.681 14.4436 117.681 8.46267C117.681 6.04506 116.814 4.96019 114.738 5.00603ZM111.703 23.7303C110.822 23.6805 108.24 23.5543 107.322 23.513C107.322 19.1829 107.322 14.8525 107.322 10.5223C108.329 10.5059 110.793 10.4638 111.703 10.4462C111.703 14.8743 111.703 19.3023 111.703 23.7303Z" fill="#FF1E2D"></path>
    <path d="M131.961 4.45694C131.961 8.42574 131.961 12.3945 131.961 16.363C131.939 16.363 131.917 16.363 131.895 16.363C130.288 12.4537 128.68 8.54741 127.072 4.64341C125.373 4.70057 120.548 4.85478 119.22 4.891C119.612 5.77072 120.004 6.65073 120.396 7.53074C120.396 14.9228 120.396 22.3145 120.396 29.7066C121.592 29.8062 124.616 30.0623 125.87 30.1873C125.87 25.5468 125.87 20.9065 125.87 16.266C125.892 16.266 125.915 16.266 125.937 16.266C125.937 16.2685 125.936 16.2595 131.652 29.682C131.976 30.4451 132.436 30.9046 133.237 31.004C134.297 31.1347 136.788 31.4539 137.413 31.5376C137.413 22.4345 137.412 13.3311 137.412 4.22803C136.422 4.27245 133.473 4.39526 131.961 4.45694Z" fill="#FF1E2D"></path>
    <path d="M139.526 4.12844C139.526 6.97473 139.526 9.82103 139.526 12.6673C140.201 12.6518 141.417 12.6056 142.319 12.5558C143.009 12.5176 143.47 12.2259 143.667 11.5672C144.391 8.97894 145.115 6.38957 145.838 3.79907C144.392 3.8783 141.288 4.04185 139.526 4.12844Z" fill="#FF1E2D"></path>
    <path d="M163.447 11.4614C163.447 9.63797 163.447 7.81458 163.447 5.99119C163.448 3.78212 162.278 2.72074 160.28 2.86589C157.174 3.09085 153.367 3.36221 150.319 3.54217C148.167 3.6695 147.137 4.96263 147.137 6.79423C147.137 9.31597 147.137 11.8374 147.137 14.3592C147.137 16.2321 147.685 17.2066 149.719 18.3647C157.567 22.8386 157.567 22.846 157.567 22.844C157.567 25.0242 157.567 27.2044 157.567 29.3846C156.334 29.1308 154.206 28.7248 153.04 28.5106C153.04 26.9166 153.04 25.3227 153.04 23.7285C151.877 23.5282 148.556 23.001 147.137 22.7908C147.137 25.2217 147.137 27.6529 147.137 30.0838C147.137 32.1766 148.234 33.1822 150.319 33.5727C153.247 34.1208 156.622 34.7843 159.765 35.4799C161.917 35.9561 163.447 34.8953 163.447 32.5317C163.447 29.0343 163.447 25.5372 163.447 22.0398C163.448 19.9131 163.13 18.7309 160.879 17.4813C153.04 13.1339 153.04 13.1413 153.04 13.139C153.04 11.7409 153.04 10.3425 153.04 8.94444C154.401 8.86663 156.676 8.72458 157.862 8.65412C157.862 9.70249 157.862 10.7509 157.862 11.7989C159.792 11.6869 162.303 11.5335 163.447 11.4614Z" fill="#FF1E2D"></path>
    <path d="M49.8607 5.82126C49.7226 5.13734 49.1803 4.84448 48.4669 4.82099C46.9228 4.77006 43.0549 4.63339 41.9706 4.5918C39.8299 13.8452 37.6892 23.1067 35.5488 32.3787C37.1811 32.1436 39.9963 31.7438 41.8518 31.5115C42.1832 29.814 42.5146 28.1191 42.846 26.4222C44.6822 26.2065 46.4699 26.0102 48.0108 25.8458C48.1881 26.9869 48.3792 28.2175 48.5859 29.5491C48.6929 30.2376 49.2352 30.6459 49.9459 30.5729C51.3669 30.4266 53.6474 30.207 54.7718 30.1037C53.1345 22.0136 51.4978 13.9196 49.8607 5.82126ZM43.8751 21.1523C44.495 17.9783 45.1149 14.8024 45.7351 11.6299C45.7578 11.6299 45.7805 11.6296 45.8032 11.6296C45.8035 11.6284 45.8038 11.6333 47.2293 20.8122C46.1996 20.9141 45.041 21.0309 43.8751 21.1523Z" fill="#FF1E2D"></path>
    <path d="M93.9651 9.82715L95.2968 13.9674H99.6064L96.12 16.5262L97.4517 20.6665L93.9651 18.1077L90.4784 20.6665L91.8104 16.5262L88.3237 13.9674H92.6334L93.9651 9.82715Z" fill="#03045E"></path>
    <path d="M174.514 35.0485C171.71 34.218 168.835 33.4356 165.898 32.7002C165.852 34.5884 165.131 35.7822 164.517 36.452C163.593 37.4596 162.271 38.0948 160.792 38.1047C160.317 38.1081 159.755 38.0555 159.255 37.9485L157.165 37.5281V46.6521C163.182 47.9215 168.985 49.3739 174.514 51.0094L170.074 41.3149L174.514 35.0485Z" fill="#03045E"></path>
    <path d="M18.2842 38.1488C18.0344 38.2003 17.7797 38.2275 17.5276 38.2292C15.7721 38.2411 14.2505 37.034 13.8283 35.2938L13.8076 35.2089L13.793 35.1226L13.3751 32.6328C10.3434 33.388 7.37661 34.1922 4.48633 35.0482L8.92624 41.3146L4.48633 51.0091C10.0151 49.3736 15.8183 47.9211 21.8356 46.6518V37.4216C20.6686 37.6551 19.1708 37.9655 18.2842 38.1488Z" fill="#03045E"></path>
    <path d="M152.507 36.5913C113.197 28.9746 65.1178 29.0241 24.2847 36.9481V53.6719C64.7279 45.5492 114.273 45.5492 154.716 53.6719V37.0355L152.507 36.5913Z" fill="#03045E"></path>
    <path d="M37.2475 41.2909L34.2135 41.7702V42.5854L37.8027 42.3062C38.3189 42.2646 38.5848 42.5181 38.5848 43.0458V44.6921C38.5848 45.2356 38.303 45.5678 37.7716 45.6519L33.6897 46.2967C33.1577 46.3808 32.8765 46.1377 32.8765 45.5942V44.747L34.2135 44.5356V45.063L37.2475 44.5837V43.5769L33.6583 43.8562C33.1426 43.8978 32.8765 43.644 32.8765 43.1166V41.6621C32.8765 41.1189 33.1577 40.7864 33.6897 40.7026L37.7716 40.0578C38.3032 39.9737 38.5848 40.2168 38.5848 40.7603V41.5274L37.2475 41.7388V41.2909Z" fill="white"></path>
    <path d="M46.2338 39.7271V42.0366C46.2338 42.5799 45.9511 42.905 45.4181 42.9757L41.8093 43.4537V45.0759L40.4678 45.2536V39.6595L45.4181 39.0038C45.9511 38.9334 46.2338 39.1835 46.2338 39.7271ZM44.8923 41.823V40.2964L41.809 40.7047V42.2313L44.8923 41.823Z" fill="white"></path>
    <path d="M48.8432 38.5949L53.1086 38.1353C53.6442 38.0779 53.9274 38.3351 53.9274 38.8784V42.8104C53.9274 43.3537 53.6442 43.672 53.1086 43.7297L48.8432 44.1893C48.3076 44.247 48.0244 43.9898 48.0244 43.4465V39.5145C48.0244 38.9709 48.3076 38.6526 48.8432 38.5949ZM52.5814 42.5639V39.4152L49.3704 39.7609V42.9097L52.5814 42.5639Z" fill="white"></path>
    <path d="M61.64 38.2047V39.9228C61.64 40.5304 61.2139 41.0136 60.6935 41.2335L61.8372 42.9511L60.536 43.0611C60.331 43.0784 60.189 43.0184 60.0786 42.8441L59.1559 41.3956L57.1925 41.5615V43.3435L55.8438 43.4576V37.8635L60.8201 37.4427C61.3562 37.3977 61.64 37.6773 61.64 38.2047ZM60.2915 40.1486V38.7101L57.1925 38.9721V40.4107L60.2915 40.1486Z" fill="white"></path>
    <path d="M66.9864 38.2399L67.0258 42.6088L65.6754 42.6937L65.7068 38.3202L63.3462 38.4685V37.2458L69.3472 36.8687V38.0913L66.9864 38.2399Z" fill="white"></path>
    <path d="M75.4578 37.7469L72.3902 37.8754V38.6906L76.0192 38.8264C76.5408 38.8445 76.8097 39.1289 76.8097 39.6563V41.3026C76.8097 41.8459 76.5251 42.1455 75.9875 42.1682L71.8602 42.3408C71.3227 42.3634 71.0381 42.0875 71.0381 41.5442V40.6971L72.3899 40.6405V41.1679L75.4575 41.0394V40.0327L71.8286 39.8966C71.3064 39.8785 71.0381 39.5941 71.0381 39.0666V37.6122C71.0381 37.0687 71.3227 36.769 71.8602 36.7466L75.9875 36.574C76.5251 36.5514 76.8097 36.8273 76.8097 37.3709V38.138L75.4578 38.1946V37.7469Z" fill="white"></path>
    <path d="M88.4663 37.1524V38.1195C88.4663 38.5991 88.1974 38.8897 87.6436 38.9919V39.008C88.1974 39.0977 88.4663 39.3826 88.4663 39.862V41.0846C88.4663 41.6279 88.1814 41.9191 87.6436 41.925L82.5723 41.9813V36.3872L87.6436 36.3309C88.1814 36.3244 88.4663 36.6091 88.4663 37.1524ZM87.1133 38.5261V37.4874L83.925 37.5227V38.5618L87.1133 38.5261ZM83.925 40.8153L87.1133 40.7799V39.605L83.925 39.6404V40.8153Z" fill="white"></path>
    <path d="M90.3716 36.3342L91.7246 36.3396V41.9337L90.3716 41.9283V36.3342Z" fill="white"></path>
    <path d="M98.0443 37.5804L94.9745 37.5224V38.3376L98.606 38.6941C99.1281 38.7439 99.3973 39.0447 99.3973 39.5721V41.2184C99.3973 41.7617 99.1124 42.0441 98.5743 42.0339L94.4448 41.9555C93.9067 41.9453 93.6221 41.6522 93.6221 41.1086V40.2614L94.9748 40.2872V40.8146L98.0446 40.8726V39.8658L94.4131 39.5093C93.891 39.4592 93.6221 39.1587 93.6221 38.631V37.1766C93.6221 36.6333 93.9067 36.3509 94.4448 36.3611L98.5743 36.4395C99.1124 36.4497 99.3973 36.7428 99.3973 37.2864V38.0535L98.0443 38.0277V37.5804Z" fill="white"></path>
    <path d="M104.733 37.8673L104.772 42.2404L103.42 42.1872L103.452 37.8172L101.088 37.7244V36.5017L107.097 36.7374V37.9601L104.733 37.8673Z" fill="white"></path>
    <path d="M114.633 38.0057V39.7239C114.633 40.3314 114.207 40.753 113.685 40.8976L114.831 42.7807L113.527 42.7023C113.321 42.6899 113.179 42.6092 113.068 42.4191L112.144 40.837L110.177 40.7185V42.5006L108.826 42.4191V36.825L113.811 37.1249C114.349 37.1574 114.633 37.478 114.633 38.0057ZM113.282 39.7544V38.3159L110.177 38.1288V39.5674L113.282 39.7544Z" fill="white"></path>
    <path d="M121.37 43.3024L116.654 42.9161V37.322L121.859 37.7484V38.9711L118.003 38.655V39.5979L121.827 39.9114L121.488 40.7388C121.409 40.94 121.267 41.0166 121.055 40.9991L118.003 40.749V41.8041L122.174 42.1459L121.804 43.0426C121.725 43.2438 121.583 43.3199 121.37 43.3024Z" fill="white"></path>
    <path d="M127.675 38.6067L130.265 44.1917L129.084 44.0684C128.872 44.0463 128.738 43.9523 128.643 43.7427L128.281 42.9297L125.33 42.6216L124.834 43.6247L123.417 43.4767L126.195 38.1726L127.234 38.281C127.447 38.3031 127.581 38.397 127.675 38.6067ZM127.738 41.7221L126.817 39.668L126.802 39.6664L125.873 41.5274L127.738 41.7221Z" fill="white"></path>
    <path d="M136.772 45.0167L132.596 44.4777C132.062 44.4089 131.78 44.0847 131.78 43.5414V38.7783L133.122 38.9515V43.2511L136.246 43.6543V39.3547L137.589 39.5279V44.2909C137.589 44.8345 137.306 45.0858 136.772 45.0167Z" fill="white"></path>
    <path d="M140.949 40.2537L142.154 41.8618L143.531 40.4195L145.205 40.6773L143.108 42.9118L145.44 46.3076L144.047 46.0932C143.852 46.0632 143.711 45.9774 143.593 45.7994L142.154 43.6676L140.542 45.5533L138.867 45.2955L141.207 42.6187L139.102 39.7373L140.495 39.9518C140.691 39.9821 140.816 40.0811 140.949 40.2537Z" fill="white"></path>
  </g>
  <defs>
    <clipPath id="clip0_1564_5987">
      <rect width="179" height="58" fill="white" transform="translate(0 0.000244141)"></rect>
    </clipPath>
  </defs>
</svg>
